<svg xmlns="http://www.w3.org/2000/svg" xmlns:xlink="http://www.w3.org/1999/xlink" version="1.1" x="0px" y="0px" viewBox="0 0 24 30" style="enable-background:new 0 0 24 24;" xml:space="preserve"><g><path d="M22.709,4.179c-0.007-0.114-0.062-0.219-0.151-0.29s-0.203-0.101-0.318-0.08c-0.05,0.009-5.229,0.859-9.965-3.6   c-0.154-0.146-0.395-0.145-0.548,0C6.988,4.667,1.812,3.818,1.76,3.809c-0.111-0.018-0.228,0.01-0.317,0.08   C1.353,3.96,1.297,4.065,1.291,4.179c-0.008,0.145-0.736,14.53,10.527,19.677c0.056,0.028,0.119,0.043,0.182,0.043   c0.059,0,0.117-0.013,0.17-0.036C23.444,18.709,22.718,4.324,22.709,4.179z M12,23.06C2.458,18.57,2.057,7.021,2.079,4.654   C3.481,4.778,7.824,4.799,12,1.043c4.175,3.755,8.517,3.732,9.921,3.61C21.944,7.019,21.55,18.558,12,23.06z"/><path d="M12,5.877c-2.813,0-5.102,2.289-5.102,5.102c0,2.813,2.289,5.102,5.102,5.102s5.103-2.289,5.103-5.102   C17.103,8.166,14.813,5.877,12,5.877z M12,15.28c-2.372,0-4.302-1.93-4.302-4.301c0-2.372,1.93-4.302,4.302-4.302   s4.302,1.93,4.302,4.302C16.302,13.351,14.372,15.28,12,15.28z"/><path d="M14.443,9.542l-3.65,3.126l-1.192-1.394c-0.144-0.167-0.396-0.188-0.564-0.043c-0.167,0.144-0.188,0.396-0.043,0.564   l1.452,1.697c0.069,0.081,0.167,0.131,0.273,0.139c0.01,0.001,0.021,0.002,0.031,0.002c0.095,0,0.188-0.034,0.26-0.097l3.954-3.386   c0.168-0.144,0.188-0.396,0.044-0.564C14.863,9.418,14.61,9.399,14.443,9.542z"/></g><text x="0" y="39" fill="#000000" font-size="5px" font-weight="bold" font-family="'Helvetica Neue', Helvetica, Arial-Unicode, Arial, Sans-serif">Created by myiconfinder</text><text x="0" y="44" fill="#000000" font-size="5px" font-weight="bold" font-family="'Helvetica Neue', Helvetica, Arial-Unicode, Arial, Sans-serif">from the Noun Project</text></svg>