<svg width="73" height="72" viewBox="0 0 73 72" fill="none" xmlns="http://www.w3.org/2000/svg">
<path d="M24.6736 56.2292L31.5727 60.0598H42.0059L51.7658 52.7318L56.141 41.2402L46.0444 29.0826L43.1838 22.2545L29.2169 22.754L29.3851 26.5846L26.6927 31.5807L22.4857 39.7415L21.6445 46.5696L24.6736 56.2292Z" fill="#ECEFF1"/>
<path d="M53.1115 32.247C50.4191 28.4163 48.2315 26.0848 47.0537 21.2552C45.8758 16.4253 47.3903 17.7578 46.3806 13.5939C45.8758 11.4291 45.0343 9.93007 44.1931 8.76429C43.1834 7.5985 42.0055 6.93222 41.3322 6.76572C39.818 5.93322 36.284 4.60066 31.9089 6.93222C27.3653 9.26379 27.8702 14.2602 28.7117 24.4195C28.7117 25.0855 28.5432 25.9186 28.2068 26.5846C27.5338 28.0836 26.3556 29.4156 25.3462 30.5817C24.1681 32.247 22.9902 33.9125 22.149 35.7443C20.1296 39.5749 18.2784 44.4046 18.7833 46.2366C19.6248 46.0701 30.2262 62.0583 30.2262 62.3913C30.8992 62.2248 33.7598 62.2248 36.284 62.2248C39.818 62.0583 41.837 61.8918 44.6979 62.5578C44.6979 62.0583 44.5295 61.5586 44.5295 61.0591C44.5295 60.0598 44.6979 59.227 44.8661 58.0612C45.0343 57.2284 45.2028 56.3959 45.371 55.3967C43.6882 56.8954 40.6592 58.561 37.7986 59.0605C35.2744 59.56 31.0674 58.7275 29.048 56.2292C29.2165 56.2292 29.5529 56.2292 29.7214 56.0627C30.2262 55.8962 30.731 55.7297 30.8992 55.3967C31.4041 54.5639 31.0674 53.7311 30.731 53.2316C30.3944 52.7318 27.8702 50.8998 26.6923 49.9008C25.5144 48.9015 24.8414 48.4017 24.1681 47.7357L22.822 46.4031C22.4854 46.0701 22.3172 45.7371 22.149 45.5703C21.8123 44.7378 21.6441 43.7386 21.8123 42.4063C21.9805 40.5742 22.6535 39.0752 23.495 37.4099C23.8317 36.7436 24.6729 35.4113 24.6729 35.4113C24.6729 35.4113 21.8123 42.4063 23.3269 44.5713C23.3269 44.5713 23.495 42.4063 24.1681 40.2412C24.6729 38.7422 25.5144 36.5771 26.5241 35.4113C27.5338 34.2455 30.0577 29.9154 30.2262 27.2506C30.2262 26.0848 30.3944 24.919 30.3944 24.0865C29.7214 23.4199 41.5007 21.7549 42.1737 23.5867C42.3419 24.253 44.6979 30.2484 46.044 33.4128C46.717 34.9118 47.5585 36.2441 48.0634 37.9094C48.5682 39.7414 48.9046 42.2395 48.9046 44.7378C48.9046 45.2373 48.9046 46.0701 48.7364 46.9029C49.073 46.9029 55.6357 39.9079 47.8952 34.079C47.8952 34.079 52.6067 36.2441 52.7751 40.5742C52.9433 44.0716 51.4288 46.9029 51.0924 47.4024C51.2606 47.4024 54.626 48.9015 54.7942 48.9015C55.4675 48.9015 56.8136 48.4017 56.8136 48.4017C56.9821 47.9022 57.4866 46.5696 57.4866 46.0701C58.6648 42.2395 55.8039 36.0776 53.1115 32.247Z" fill="#263238"/>
<path d="M31.7403 21.2552C32.9485 21.2552 33.9279 19.7637 33.9279 17.9243C33.9279 16.0847 32.9485 14.5935 31.7403 14.5935C30.5323 14.5935 29.5527 16.0847 29.5527 17.9243C29.5527 19.7637 30.5323 21.2552 31.7403 21.2552ZM39.3127 21.5882C40.8927 21.5882 42.1735 19.8731 42.1735 17.7575C42.1735 15.6422 40.8927 13.9272 39.3127 13.9272C37.7329 13.9272 36.4521 15.6422 36.4521 17.7578C36.4521 19.8731 37.7329 21.5882 39.3127 21.5882Z" fill="#ECEFF1"/>
<path d="M32.9633 18.1521C32.8235 17.0572 32.1867 16.2348 31.5413 16.3155C30.8961 16.3963 30.486 17.3494 30.6261 18.4446C30.7658 19.5395 31.4023 20.3619 32.0478 20.2812C32.6933 20.2002 33.103 19.247 32.9633 18.1521ZM39.1454 20.5889C40.0747 20.5889 40.8281 19.6197 40.8281 18.4238C40.8281 17.2282 40.0747 16.2587 39.1454 16.2587C38.2159 16.2587 37.4624 17.2282 37.4624 18.4238C37.4624 19.6197 38.2159 20.5889 39.1454 20.5889Z" fill="#212121"/>
<path d="M61.5256 55.0634C60.8526 54.7304 59.6744 54.2306 58.6647 52.7318C58.1602 51.899 58.3284 49.5675 57.4869 48.5682C56.982 47.9022 56.309 48.2352 56.1408 48.2352C54.6263 48.5682 51.0924 50.8997 48.7366 48.2352C48.4 47.9022 47.8951 47.4024 47.0539 47.4024C46.2124 47.4024 45.876 47.7354 45.5394 48.4017C45.2027 49.068 45.2027 49.5675 45.2027 51.233C45.2027 52.5653 45.2027 54.0641 45.0345 55.2299C44.6979 58.0612 44.1933 59.7268 44.1933 61.3921C44.1933 63.2241 44.6979 64.3899 45.3712 64.8894C45.876 65.3892 46.7172 65.7222 48.5684 65.7222C50.4193 65.7222 51.5972 65.0562 52.7754 63.8901C53.6166 63.0576 54.2896 62.7243 56.6456 61.0591C58.4965 59.8933 61.3574 58.3942 61.862 57.8947C62.1986 57.5617 62.7035 57.3949 62.7035 56.3956C62.7035 55.5631 62.0304 55.2299 61.5256 55.0634ZM27.7022 55.5632C26.0195 52.8983 25.851 52.3988 24.6731 50.7332C23.6634 49.068 21.4759 45.9036 20.1298 45.9036C19.1201 45.9036 18.6153 46.4031 17.9423 47.0694C17.2689 47.7354 16.5959 49.2345 15.418 50.0672C14.4084 50.8997 11.5478 50.7332 10.8747 51.7325C10.2014 52.7318 11.5478 54.2309 11.5478 56.7289C11.5478 57.7282 10.7063 58.3942 10.5381 59.0605C10.3699 59.8933 10.2014 60.3928 10.5381 61.0591C11.2111 62.0583 12.0526 62.3913 17.7738 63.5571C20.8029 64.2234 23.6635 65.8887 25.5146 66.0555C27.3655 66.222 30.5628 66.0555 30.5628 61.5586C30.7313 58.894 29.2167 58.2277 27.7022 55.5632ZM30.8994 25.4188C29.8898 24.7525 29.0483 24.0862 29.0483 23.0872C29.0483 22.0879 29.7216 21.7547 30.7313 20.9222C30.8994 20.7554 32.7504 19.0901 34.6015 19.0901C36.4524 19.0901 38.64 20.2559 39.4815 20.5892C40.996 20.9219 42.5103 21.2552 42.3421 22.4209C42.1739 24.0862 42.0057 24.4195 40.3227 25.2523C39.1449 25.5853 36.9573 27.4173 35.4428 27.4173C34.7697 27.4173 33.76 27.4173 33.087 27.2506C32.5822 27.0841 31.7407 26.2513 30.8994 25.4188Z" fill="#FFC107"/>
<path d="M30.5626 24.0862C30.8993 24.4195 31.4041 24.7528 31.909 24.919C32.2453 25.0855 32.7502 25.2523 32.7502 25.2523H34.2647C35.1062 25.2523 36.2841 24.919 37.462 24.253C38.6398 23.7532 38.8083 23.4202 39.6495 23.0872C40.491 22.5874 41.3322 22.0879 40.9959 21.9214C40.6592 21.7546 40.3225 21.9214 39.1447 22.5874C38.135 23.2537 37.2938 23.5867 36.2841 24.0865C35.7792 24.253 35.1062 24.586 34.6014 24.586H33.0868C32.582 24.586 32.2453 24.4195 31.7405 24.253C31.4041 24.0862 31.2356 23.9197 31.0675 23.9197C30.7311 23.7532 30.0578 23.0872 29.7214 22.9204C29.7214 22.9204 29.3847 22.9204 29.5529 23.0872L30.5626 24.0862ZM35.611 20.4224C35.7792 20.7554 36.1159 20.7554 36.2841 20.9219C36.4523 21.0886 36.6207 21.0886 36.6207 21.0886C36.7889 20.9219 36.6207 20.5889 36.4523 20.5889C36.4523 20.2559 35.611 20.2559 35.611 20.4224ZM32.9186 20.7554C32.9186 20.9221 33.255 21.0886 33.255 20.9221C33.4235 20.7554 33.5917 20.5889 33.7599 20.5889C34.0965 20.4224 33.928 20.2559 33.4235 20.2559C33.0868 20.4224 33.0868 20.5889 32.9186 20.7554Z" fill="#634703"/>
<path d="M49.2414 50.2337V50.7332C49.578 51.3995 50.4193 51.566 51.0923 51.566C52.102 51.566 53.1117 50.8997 53.6165 50.2337C53.6165 50.0672 53.7847 49.9005 53.9532 49.734C54.2895 49.2345 54.458 48.9015 54.6262 48.7347C54.6262 48.7347 54.458 48.5682 54.458 48.4017C54.2895 48.0687 53.7847 47.7354 53.1117 47.5689C52.6068 47.4024 51.7656 47.2359 51.429 47.2359C49.9144 47.0694 49.0732 47.5689 48.5684 48.0687C48.5684 48.0687 48.7365 48.0687 48.7365 48.2352C49.0732 48.5682 49.2414 48.9015 49.2414 49.401C49.4096 49.734 49.2414 49.9005 49.2414 50.2337Z" fill="#455A64"/>
</svg>
