<svg width="73" height="72" viewBox="0 0 73 72" fill="none" xmlns="http://www.w3.org/2000/svg">
<path d="M51.6495 60.84C48.7095 63.69 45.4995 63.24 42.4095 61.89C39.1395 60.51 36.1395 60.45 32.6895 61.89C28.3695 63.75 26.0895 63.21 23.5095 60.84C8.86952 45.75 11.0295 22.77 27.6495 21.93C31.6995 22.14 34.5195 24.15 36.8895 24.33C40.4295 23.61 43.8195 21.54 47.5995 21.81C52.1295 22.17 55.5495 23.97 57.7995 27.21C48.4395 32.82 50.6595 45.15 59.2395 48.6C57.5295 53.1 55.3095 57.57 51.6195 60.87L51.6495 60.84ZM36.5895 21.75C36.1395 15.06 41.5695 9.54 47.8095 9C48.6795 16.74 40.7895 22.5 36.5895 21.75Z" fill="#999999"/>
</svg>
